<?xml version="1.0" encoding="UTF-8" standalone="no"?>
<!DOCTYPE svg PUBLIC "-//W3C//DTD SVG 1.1//EN"
 "http://www.w3.org/Graphics/SVG/1.1/DTD/svg11.dtd">
<!-- Generated by graphviz version 2.48.0 (20210717.1556)
 -->
<!-- Title: Navi_Server.Controllers.CustomControllerBase Pages: 1 -->
<svg width="413pt" height="137pt"
 viewBox="0.00 0.00 413.00 137.00" xmlns="http://www.w3.org/2000/svg" xmlns:xlink="http://www.w3.org/1999/xlink">
<g id="graph0" class="graph" transform="scale(1 1) rotate(0) translate(4 133)">
<title>Navi_Server.Controllers.CustomControllerBase</title>
<!-- Node1 -->
<g id="node1" class="node">
<title>Node1</title>
<g id="a_node1"><a xlink:title=" ">
<polygon fill="#bfbfbf" stroke="black" points="119,-49.5 119,-79.5 244,-79.5 244,-49.5 119,-49.5"/>
<text text-anchor="start" x="127" y="-67.5" font-family="Helvetica,sans-Serif" font-size="10.00">Navi_Server.Controllers.</text>
<text text-anchor="middle" x="181.5" y="-56.5" font-family="Helvetica,sans-Serif" font-size="10.00">CustomControllerBase</text>
</a>
</g>
</g>
<!-- Node3 -->
<g id="node3" class="node">
<title>Node3</title>
<g id="a_node3"><a xlink:href="class_navi___server_1_1_controllers_1_1_file_controller.html" target="_top" xlink:title=" ">
<polygon fill="none" stroke="black" points="280,-98.5 280,-128.5 405,-128.5 405,-98.5 280,-98.5"/>
<text text-anchor="start" x="288" y="-116.5" font-family="Helvetica,sans-Serif" font-size="10.00">Navi_Server.Controllers.</text>
<text text-anchor="middle" x="342.5" y="-105.5" font-family="Helvetica,sans-Serif" font-size="10.00">FileController</text>
</a>
</g>
</g>
<!-- Node1&#45;&gt;Node3 -->
<g id="edge2" class="edge">
<title>Node1&#45;&gt;Node3</title>
<path fill="none" stroke="midnightblue" d="M241.27,-82.61C258.18,-87.82 276.43,-93.45 292.66,-98.45"/>
<polygon fill="midnightblue" stroke="midnightblue" points="242.09,-79.2 231.5,-79.6 240.03,-85.89 242.09,-79.2"/>
</g>
<!-- Node4 -->
<g id="node4" class="node">
<title>Node4</title>
<g id="a_node4"><a xlink:href="class_navi___server_1_1_controllers_1_1_folder_controller.html" target="_top" xlink:title=" ">
<polygon fill="none" stroke="black" points="280,-49.5 280,-79.5 405,-79.5 405,-49.5 280,-49.5"/>
<text text-anchor="start" x="288" y="-67.5" font-family="Helvetica,sans-Serif" font-size="10.00">Navi_Server.Controllers.</text>
<text text-anchor="middle" x="342.5" y="-56.5" font-family="Helvetica,sans-Serif" font-size="10.00">FolderController</text>
</a>
</g>
</g>
<!-- Node1&#45;&gt;Node4 -->
<g id="edge3" class="edge">
<title>Node1&#45;&gt;Node4</title>
<path fill="none" stroke="midnightblue" d="M254.59,-64.5C262.99,-64.5 271.5,-64.5 279.74,-64.5"/>
<polygon fill="midnightblue" stroke="midnightblue" points="254.43,-61 244.43,-64.5 254.43,-68 254.43,-61"/>
</g>
<!-- Node5 -->
<g id="node5" class="node">
<title>Node5</title>
<g id="a_node5"><a xlink:href="class_navi___server_1_1_controllers_1_1_user_controller.html" target="_top" xlink:title=" ">
<polygon fill="none" stroke="black" points="280,-0.5 280,-30.5 405,-30.5 405,-0.5 280,-0.5"/>
<text text-anchor="start" x="288" y="-18.5" font-family="Helvetica,sans-Serif" font-size="10.00">Navi_Server.Controllers.</text>
<text text-anchor="middle" x="342.5" y="-7.5" font-family="Helvetica,sans-Serif" font-size="10.00">UserController</text>
</a>
</g>
</g>
<!-- Node1&#45;&gt;Node5 -->
<g id="edge4" class="edge">
<title>Node1&#45;&gt;Node5</title>
<path fill="none" stroke="midnightblue" d="M241.27,-46.39C258.18,-41.18 276.43,-35.55 292.66,-30.55"/>
<polygon fill="midnightblue" stroke="midnightblue" points="240.03,-43.11 231.5,-49.4 242.09,-49.8 240.03,-43.11"/>
</g>
<!-- Node2 -->
<g id="node2" class="node">
<title>Node2</title>
<g id="a_node2"><a xlink:title=" ">
<polygon fill="none" stroke="#bfbfbf" points="0,-55 0,-74 83,-74 83,-55 0,-55"/>
<text text-anchor="middle" x="41.5" y="-62" font-family="Helvetica,sans-Serif" font-size="10.00">ControllerBase</text>
</a>
</g>
</g>
<!-- Node2&#45;&gt;Node1 -->
<g id="edge1" class="edge">
<title>Node2&#45;&gt;Node1</title>
<path fill="none" stroke="midnightblue" d="M93.42,-64.5C101.71,-64.5 110.38,-64.5 118.9,-64.5"/>
<polygon fill="midnightblue" stroke="midnightblue" points="93.16,-61 83.16,-64.5 93.16,-68 93.16,-61"/>
</g>
</g>
</svg>
