<?xml version="1.0" encoding="UTF-8" standalone="no"?>
<!DOCTYPE svg PUBLIC "-//W3C//DTD SVG 1.1//EN"
 "http://www.w3.org/Graphics/SVG/1.1/DTD/svg11.dtd">
<!-- Generated by graphviz version 2.48.0 (20210717.1556)
 -->
<!-- Title: Graphical Class Hierarchy Pages: 1 -->
<svg width="455pt" height="88pt"
 viewBox="0.00 0.00 455.00 88.00" xmlns="http://www.w3.org/2000/svg" xmlns:xlink="http://www.w3.org/1999/xlink">
<g id="graph0" class="graph" transform="scale(1 1) rotate(0) translate(4 84)">
<title>Graphical Class Hierarchy</title>
<!-- Node3 -->
<g id="node1" class="node">
<title>Node3</title>
<g id="a_node1"><a xlink:href="class_navi___server_1_1_controllers_1_1_user_controller.html" target="_top" xlink:title=" ">
<polygon fill="none" stroke="black" points="0,-24.5 0,-54.5 125,-54.5 125,-24.5 0,-24.5"/>
<text text-anchor="start" x="8" y="-42.5" font-family="Helvetica,sans-Serif" font-size="10.00">Navi_Server.Controllers.</text>
<text text-anchor="middle" x="62.5" y="-31.5" font-family="Helvetica,sans-Serif" font-size="10.00">UserController</text>
</a>
</g>
</g>
<!-- Node0 -->
<g id="node2" class="node">
<title>Node0</title>
<g id="a_node2"><a xlink:href="class_navi___server_1_1_controllers_1_1_custom_controller_base.html" target="_top" xlink:title=" ">
<polygon fill="none" stroke="black" points="161,-24.5 161,-54.5 286,-54.5 286,-24.5 161,-24.5"/>
<text text-anchor="start" x="169" y="-42.5" font-family="Helvetica,sans-Serif" font-size="10.00">Navi_Server.Controllers.</text>
<text text-anchor="middle" x="223.5" y="-31.5" font-family="Helvetica,sans-Serif" font-size="10.00">CustomControllerBase</text>
</a>
</g>
</g>
<!-- Node3&#45;&gt;Node0 -->
<g id="edge1" class="edge">
<title>Node3&#45;&gt;Node0</title>
<path fill="none" stroke="midnightblue" d="M135.59,-32.78C143.99,-32.72 152.5,-32.76 160.74,-32.9"/>
<polygon fill="midnightblue" stroke="midnightblue" points="135.39,-29.28 125.43,-32.9 135.47,-36.28 135.39,-29.28"/>
</g>
<!-- Node0&#45;&gt;Node3 -->
<g id="edge4" class="edge">
<title>Node0&#45;&gt;Node3</title>
<path fill="none" stroke="midnightblue" d="M150.58,-46.22C142.18,-46.28 133.67,-46.24 125.43,-46.1"/>
<polygon fill="midnightblue" stroke="midnightblue" points="150.78,-49.72 160.74,-46.1 150.7,-42.72 150.78,-49.72"/>
</g>
<!-- Node1 -->
<g id="node3" class="node">
<title>Node1</title>
<g id="a_node3"><a xlink:href="class_navi___server_1_1_controllers_1_1_file_controller.html" target="_top" xlink:title=" ">
<polygon fill="none" stroke="black" points="322,-49.5 322,-79.5 447,-79.5 447,-49.5 322,-49.5"/>
<text text-anchor="start" x="330" y="-67.5" font-family="Helvetica,sans-Serif" font-size="10.00">Navi_Server.Controllers.</text>
<text text-anchor="middle" x="384.5" y="-56.5" font-family="Helvetica,sans-Serif" font-size="10.00">FileController</text>
</a>
</g>
</g>
<!-- Node0&#45;&gt;Node1 -->
<g id="edge2" class="edge">
<title>Node0&#45;&gt;Node1</title>
<path fill="none" stroke="midnightblue" d="M296.32,-50.79C304.8,-52.13 313.41,-53.48 321.74,-54.79"/>
<polygon fill="midnightblue" stroke="midnightblue" points="296.85,-47.33 286.43,-49.24 295.76,-54.25 296.85,-47.33"/>
</g>
<!-- Node2 -->
<g id="node4" class="node">
<title>Node2</title>
<g id="a_node4"><a xlink:href="class_navi___server_1_1_controllers_1_1_folder_controller.html" target="_top" xlink:title=" ">
<polygon fill="none" stroke="black" points="322,-0.5 322,-30.5 447,-30.5 447,-0.5 322,-0.5"/>
<text text-anchor="start" x="330" y="-18.5" font-family="Helvetica,sans-Serif" font-size="10.00">Navi_Server.Controllers.</text>
<text text-anchor="middle" x="384.5" y="-7.5" font-family="Helvetica,sans-Serif" font-size="10.00">FolderController</text>
</a>
</g>
</g>
<!-- Node0&#45;&gt;Node2 -->
<g id="edge3" class="edge">
<title>Node0&#45;&gt;Node2</title>
<path fill="none" stroke="midnightblue" d="M296.59,-28.62C304.99,-27.35 313.5,-26.07 321.74,-24.82"/>
<polygon fill="midnightblue" stroke="midnightblue" points="295.79,-25.2 286.43,-30.15 296.84,-32.12 295.79,-25.2"/>
</g>
</g>
</svg>
